<?xml version="1.0" standalone="no"?><!DOCTYPE svg PUBLIC "-//W3C//DTD SVG 1.1//EN" "http://www.w3.org/Graphics/SVG/1.1/DTD/svg11.dtd"><svg class="icon" width="200px" height="200.00px" viewBox="0 0 1024 1024" version="1.1" xmlns="http://www.w3.org/2000/svg"><path fill="#333333" d="M1011.52 343.808c0-9.984 0.672-20.096-0.64-29.92-5.632-41.12-34.88-59.168-72.736-43.008-21.888 9.344-41.824 23.264-62.848 34.72-24.864 13.536-41.76 31.744-35.008 62.368 6.24 28.16 26.88 37.376 53.44 38.304 5.216 0.192 10.272 4 15.488 6.176v372.704l-239.104 121.984c-78.816-41.28-152.8-80.832-227.456-119.04-125.888-64.416-83.008-63.776-204.992-0.32-38.56 20.064-76.704 40.96-126.592 67.648 0-114.752 0.704-216.448-0.32-318.112-0.48-44.704-3.424-86.08 49.984-108.352 26.88-11.2 30.72-45.12 16.192-66.976-15.84-23.744-39.072-27.648-63.36-17.152-21.856 9.44-41.664 23.52-62.976 34.432-28.16 14.4-39.04 36.512-38.88 67.968 0.8 157.888-0.32 315.808 0.672 473.664 0.448 66.88 32 83.904 93.216 51.84 65.472-34.304 131.072-68.544 194.944-105.6 27.456-15.968 48.896-16.512 76.992-0.864 82.016 45.632 166.4 87.04 248.672 132.16 31.456 17.216 57.856 16.704 89.504-0.48 80.768-43.84 162.528-85.76 245.248-125.728 37.408-18.112 51.84-43.104 51.296-84.736-1.888-147.84-0.704-295.776-0.736-443.68zM470.144 632.8c31.232 29.76 51.552 29.344 83.104-0.544 71.488-67.68 135.456-142.016 175.168-233.024 18.048-41.344 26.816-86.72 39.776-130.24-5.312-129.6-91.872-232.16-218.56-252.832-120.64-19.712-238.496 51.936-276.576 169.088-21.344 65.6-14.176 130.24 11.52 193.056 40.96 99.904 108.48 181.024 185.6 254.496zM518.72 115.456c85.824 3.68 152.736 79.872 141.472 166.144-11.456 87.872-58.56 160.032-113.024 226.976-18.848 23.168-46.56 21.632-69.216 2.912-48.64-40.096-115.232-180.8-115.584-244.128-0.416-88.32 68.864-155.648 156.352-151.904zM423.36 272.128a90.752 90.752 0 0 0 181.44 0 90.752 90.752 0 0 0-181.44 0z" /></svg>