<?xml version="1.0" standalone="no"?><!DOCTYPE svg PUBLIC "-//W3C//DTD SVG 1.1//EN" "http://www.w3.org/Graphics/SVG/1.1/DTD/svg11.dtd"><svg class="icon" width="200px" height="200.00px" viewBox="0 0 1024 1024" version="1.1" xmlns="http://www.w3.org/2000/svg"><path fill="#333333" d="M991.153231 442.919385L602.899692 38.833231a125.912615 125.912615 0 0 0-181.878154 0L32.846769 442.919385c-40.054154 42.259692-34.894769 77.824-28.356923 92.829538 11.500308 26.112 38.124308 42.141538 66.56 40.132923h56.989539v310.862769C128 957.243077 178.688 1024 250.722462 1024h165.218461v-329.255385c0-35.249231-5.277538-54.902154 30.72-54.902153h130.599385c36.076308 0 30.72 19.692308 30.72 54.941538v329.019077h165.29723c71.955692 0 122.722462-66.56 122.722462-137.294769v-310.626462h56.871385a67.505231 67.505231 0 0 0 66.56-40.132923c6.656-14.966154 11.815385-51.121231-28.278154-92.829538z" /></svg>