<?xml version="1.0" standalone="no"?><!DOCTYPE svg PUBLIC "-//W3C//DTD SVG 1.1//EN" "http://www.w3.org/Graphics/SVG/1.1/DTD/svg11.dtd"><svg class="icon" width="200px" height="200.00px" viewBox="0 0 1024 1024" version="1.1" xmlns="http://www.w3.org/2000/svg"><path fill="#333333" d="M595.675429 580.461714A357.595429 357.595429 0 0 0 109.714286 914.285714a44.690286 44.690286 0 0 1-89.380572 0 447.195429 447.195429 0 0 1 280.941715-415.158857 268.214857 268.214857 0 1 1 332.068571 0c17.408 7.021714 34.377143 15.067429 50.614857 24.137143-32.914286 13.019429-62.902857 32.475429-88.283428 57.197714zM467.309714 467.309714A178.761143 178.761143 0 0 0 468.114286 109.714286h-0.877715a178.761143 178.761143 0 0 0 0 357.595428z m152.868572 151.990857c28.379429-30.281143 64.804571-51.931429 104.96-62.610285 11.190857 19.968 32.182857 32.402286 55.076571 32.475428a63.488 63.488 0 0 0 55.076572-32.475428 222.134857 222.134857 0 0 1 105.033142 62.610285 67.730286 67.730286 0 0 0 0.219429 65.389715c10.971429 20.041143 31.963429 32.621714 54.857143 32.914285a238.445714 238.445714 0 0 1 0 125.147429 63.488 63.488 0 0 0-54.857143 32.914286 67.657143 67.657143 0 0 0-0.292571 65.389714 221.769143 221.769143 0 0 1-105.033143 62.610286 63.488 63.488 0 0 0-55.003429-32.475429 63.488 63.488 0 0 0-55.076571 32.475429 221.769143 221.769143 0 0 1-105.033143-62.537143 67.730286 67.730286 0 0 0-0.292572-65.389714 63.488 63.488 0 0 0-54.857142-32.914286 237.568 237.568 0 0 1 0-125.220572 63.488 63.488 0 0 0 54.857142-32.914285 67.657143 67.657143 0 0 0 0.292572-65.389715z m70.729143 106.349715c-10.24 18.358857-25.965714 32.402286-44.178286 40.740571a147.748571 147.748571 0 0 0 0 27.648 98.157714 98.157714 0 0 1 56.027428 100.278857c6.582857 4.900571 13.677714 9.142857 20.992 12.653715a94.573714 94.573714 0 0 1 112.932572 0c7.314286-3.510857 14.336-7.826286 20.918857-12.653715a98.596571 98.596571 0 0 1 11.922286-59.538285c10.24-18.432 25.892571-32.475429 44.105143-40.740572a147.748571 147.748571 0 0 0 0-27.648 96.256 96.256 0 0 1-44.105143-40.740571 98.596571 98.596571 0 0 1-11.922286-59.538286 132.754286 132.754286 0 0 0-20.992-12.726857c-33.499429 24.868571-79.36 24.868571-112.859429 0-7.314286 3.584-14.409143 7.826286-20.992 12.726857 2.413714 20.187429-1.462857 41.033143-11.849142 59.538286z" /></svg>