<?xml version="1.0" standalone="no"?><!DOCTYPE svg PUBLIC "-//W3C//DTD SVG 1.1//EN" "http://www.w3.org/Graphics/SVG/1.1/DTD/svg11.dtd"><svg t="1608125995629" class="icon" viewBox="0 0 1024 1024" version="1.1" xmlns="http://www.w3.org/2000/svg" p-id="1493" xmlns:xlink="http://www.w3.org/1999/xlink" width="200" height="200"><defs><style type="text/css"></style></defs><path d="M979.748571 432.566857H556.032V44.178286A44.251429 44.251429 0 0 0 511.890286 0a44.251429 44.251429 0 0 0-44.141715 44.141714v388.388572H44.141714A44.251429 44.251429 0 0 0 0 476.745143a44.251429 44.251429 0 0 0 44.141714 44.141714h423.716572v458.971429A44.251429 44.251429 0 0 0 512 1024a44.251429 44.251429 0 0 0 44.141714-44.141714V520.850286h423.716572A44.251429 44.251429 0 0 0 1024 476.708571a44.434286 44.434286 0 0 0-44.251429-44.141714z" p-id="1494" fill="#d81e06"></path></svg>